<svg xmlns="http://www.w3.org/2000/svg" viewBox="0 0 67 67"><defs><style>.a{fill:#039;}.a,.b,.c,.d,.e{fill-rule:evenodd;}.b{fill:blue;}.c{fill:#006db6;}.d{fill:#063678;}.e{fill:aqua;}</style></defs><path class="a"/><path class="b"/><path class="c" d="M163.4,199.471c0,10.194.01,14.364.023,9.267s.013-13.438,0-18.535-.023-.927-.023,9.267m-17.825,2.768a21.633,21.633,0,1,0,.025,2.5c.014-1.41.014-3.691,0-5.068s-.025-.223-.025,2.564m-19.98,5.654c3.566.014,9.4.014,12.966,0s.648-.025-6.483-.025-10.049.011-6.483.025" transform="translate(-96.429 -143.913)"/><path class="d" d="M104.007,98.263l.022,16.258,11.7.024,11.7.024V127.7l-11.7.024-11.7.024-.023,4.81-.023,4.81,20.125,0c19.047,0,20.126-.011,20.133-.165.037-.776.01-37.786-.028-37.851-.029-.05-3.444-.085-8.288-.085h-8.238V90.693c0-7.777-.013-8.582-.143-8.635-.078-.032-5.412-.057-11.852-.056l-11.71,0,.022,16.258m24.619-16.184c-.025.027-.046,3.673-.046,8.1v8.055h7.708c5.576,0,7.708-.029,7.708-.1,0-.057.06-.08.134-.05.257.1.13-.177-.222-.492-.195-.174-.333-.354-.306-.4s.007-.082-.043-.082a2.653,2.653,0,0,1-.833-.855.063.063,0,0,0-.063-.084,2.706,2.706,0,0,1-.828-.855.063.063,0,0,0-.063-.084,2.706,2.706,0,0,1-.828-.855.063.063,0,0,0-.063-.084,2.706,2.706,0,0,1-.828-.855.063.063,0,0,0-.063-.084,2.706,2.706,0,0,1-.828-.855.063.063,0,0,0-.063-.084,2.706,2.706,0,0,1-.828-.855.063.063,0,0,0-.063-.084,2.706,2.706,0,0,1-.828-.855.063.063,0,0,0-.063-.084,2.706,2.706,0,0,1-.828-.855.063.063,0,0,0-.063-.084,2.706,2.706,0,0,1-.828-.855.063.063,0,0,0-.063-.084,2.706,2.706,0,0,1-.828-.855.063.063,0,0,0-.063-.084,2.706,2.706,0,0,1-.828-.855.063.063,0,0,0-.063-.084,2.706,2.706,0,0,1-.828-.855.063.063,0,0,0-.063-.084,2.706,2.706,0,0,1-.828-.855.063.063,0,0,0-.063-.084,2.706,2.706,0,0,1-.828-.855.063.063,0,0,0-.063-.084,2.706,2.706,0,0,1-.828-.855.063.063,0,0,0-.063-.084,2.706,2.706,0,0,1-.828-.855c.012-.046-.028-.09-.089-.1a1.442,1.442,0,0,0-.645,0M99.591,115.565c-.158.167-.067,11.108.092,11.108,11.682.025,26.632-.018,26.688-.077.132-.139.092-10.923-.041-11.012s-26.656-.107-26.74-.019" transform="translate(-88.925 -76.606)"/><path class="e"/></svg>