<svg xmlns="http://www.w3.org/2000/svg" viewBox="0 0 32.472 37.031"><defs><style>.a{fill:#0b9de1;fill-rule:evenodd;}</style></defs><g transform="translate(-7 -3)"><g transform="translate(7 3)"><path class="a" d="M24.618,29.081a8.9,8.9,0,0,1-4.8,1.35c-4.247,0-7.691-2.763-7.691-6.172s3.443-6.172,7.691-6.172,7.691,2.763,7.691,6.172a5.445,5.445,0,0,1-1.682,3.852l9.14,7.335-1.208.97-9.14-7.335ZM27.508,3H10.433C8.537,3,7,4.232,7,5.753V37.278c0,1.52,1.523,2.753,3.414,2.753H36.058c1.885,0,3.414-1.222,3.414-2.739V13.972H30.937c-1.893,0-3.428-1.216-3.428-2.74V3Zm1.709,0v8.225A1.568,1.568,0,0,0,30.911,12.6h8.561L29.217,3Zm-9.4,26.059c3.3,0,5.982-2.149,5.982-4.8s-2.678-4.8-5.982-4.8-5.982,2.149-5.982,4.8,2.678,4.8,5.982,4.8Z" transform="translate(-7 -3)"/></g></g></svg>