<svg xmlns="http://www.w3.org/2000/svg" viewBox="0 0 50.053 68.557"><defs><style>.a{fill:#039;}.a,.b,.c,.d,.e{fill-rule:evenodd;}.b{fill:blue;}.c{fill:#006db6;}.d{fill:#0b9de1;}.e{fill:aqua;}</style></defs><g transform="translate(0 0.084)"><path class="a" transform="translate(0 -0.085)"/><path class="b" transform="translate(0 -0.085)"/><path class="c" d="M82.852,102.178a.312.312,0,0,0,0,.2c.022.032.04-.009.04-.091a.213.213,0,0,1,.114-.192c.106-.04.106-.044,0-.054a.167.167,0,0,0-.154.134m-6.492,14.05a.312.312,0,0,0,0,.2c.022.032.04-.009.04-.091a.213.213,0,0,1,.114-.192c.106-.04.106-.044,0-.054a.167.167,0,0,0-.154.134M98.433,118.1a.312.312,0,0,0,0,.2c.022.032.04-.009.04-.091a.213.213,0,0,1,.114-.192c.106-.04.106-.044,0-.054a.167.167,0,0,0-.154.134m-2.749.61c0,.055-.029.073-.065.041s-.065-.013-.065.041c0,.143.1.122.195-.041.056-.1.058-.14.008-.14s-.073.045-.073.1m-2.918,1.578c-.056.152-.047.171.063.129a.208.208,0,0,0,.129-.178c0-.188-.114-.159-.191.049m-.588.337c-.066.115-.062.141.025.141.058,0,.105-.063.105-.141s-.011-.141-.025-.141a.426.426,0,0,0-.105.141m16.461,1.539c-.109.174-.108.179.022.13a.215.215,0,0,0,.136-.181c0-.171-.023-.164-.158.051m-33.577,5.3a.312.312,0,0,0,0,.2c.022.032.04-.009.04-.091a.213.213,0,0,1,.114-.192c.106-.04.106-.044,0-.054a.167.167,0,0,0-.154.134m-4.411,3.017c.027.067.01.12-.039.123s-.015.046.07.1c.2.117.215.081.053-.148-.072-.1-.111-.135-.085-.07m21.29,1.667a.312.312,0,0,0,0,.2c.022.032.04-.009.04-.091a.213.213,0,0,1,.114-.192c.106-.04.106-.044,0-.054a.167.167,0,0,0-.154.134m17.055.315c-.056.151-.047.171.063.129a.208.208,0,0,0,.129-.178c0-.188-.114-.159-.191.049m-.588.337c-.066.115-.062.141.025.141.058,0,.105-.063.105-.141s-.011-.141-.025-.141a.426.426,0,0,0-.105.141m-32.563.492c.027.067.01.12-.039.123s-.015.046.07.1c.2.117.215.081.053-.148-.072-.1-.111-.135-.085-.07M107.7,143.706c-.056.152-.047.171.063.129a.208.208,0,0,0,.129-.178c0-.188-.114-.159-.191.049m-.588.337c-.066.115-.062.141.025.141.058,0,.105-.063.105-.141s-.011-.141-.025-.141a.426.426,0,0,0-.105.141m-29.966.492c.027.067.01.12-.039.123s-.015.046.07.1c.2.117.215.081.053-.148-.072-.1-.111-.135-.085-.07m25.381,1.944a.192.192,0,0,1-.171.141c-.074,0-.116.025-.1.056.071.1.437-.069.437-.2,0-.176-.124-.171-.171.008" transform="translate(-59.134 -78.234)"/><path class="d" d="M90.5,83.74c-.024.091-.125.141-.287.141a.318.318,0,0,0-.3.133.388.388,0,0,1-.279.17c-.142.023-.227.087-.227.171s-.093.143-.312.163c-.2.018-.325.078-.348.164s-.127.135-.282.135-.259.05-.283.14a.23.23,0,0,1-.234.141.291.291,0,0,0-.277.187.3.3,0,0,1-.317.187.391.391,0,0,0-.31.128.587.587,0,0,1-.347.181c-.15.029-.284.1-.3.153a.147.147,0,0,1-.142.1c-.188,0-.324.1-.324.244,0,.089-.08.13-.252.13a.4.4,0,0,0-.333.141.4.4,0,0,1-.335.141c-.156,0-.267.05-.288.129s-.149.156-.29.188-.249.106-.24.175-.091.126-.3.145-.325.078-.348.164a.225.225,0,0,1-.217.135.225.225,0,0,0-.218.14.2.2,0,0,1-.185.142c-.25,0-.44.108-.44.244,0,.091-.086.129-.284.129a.423.423,0,0,0-.365.141.336.336,0,0,1-.268.14c-.123,0-.187.048-.187.141s-.076.14-.3.14c-.244,0-.3.034-.332.187s-.089.187-.246.187a.365.365,0,0,0-.292.14.4.4,0,0,1-.333.141c-.18,0-.252.04-.252.141s-.066.144-.179.151a1.381,1.381,0,0,0-.243.033,1.166,1.166,0,0,1-.153.036c-.05.008-.072.075-.051.155.029.11-.018.141-.216.141a.47.47,0,0,0-.346.133.514.514,0,0,1-.313.164c-.134.018-.214.077-.2.148s-.064.117-.211.117a.439.439,0,0,0-.357.187.441.441,0,0,1-.383.187c-.165,0-.266.049-.29.141a.229.229,0,0,1-.231.141.274.274,0,0,0-.246.136.386.386,0,0,1-.3.16.374.374,0,0,0-.323.192.292.292,0,0,1-.276.167.356.356,0,0,0-.285.141.293.293,0,0,1-.223.14.436.436,0,0,0-.268.137.59.59,0,0,1-.375.141c-.194,0-.257.045-.284.19s-.089.187-.293.187-.251.03-.222.141-.025.14-.278.14c-.221,0-.327.042-.353.141a.23.23,0,0,1-.234.141.451.451,0,0,0-.327.187.453.453,0,0,1-.325.187q-.195,0-.195.14c0,.106-.079.141-.325.141s-.325.037-.325.129-.1.152-.255.187a.669.669,0,0,0-.341.181.732.732,0,0,1-.206.188.176.176,0,0,0-.081.213,1.177,1.177,0,0,1,.039.233c0,.047.085.086.188.086a.227.227,0,0,1,.225.141.23.23,0,0,0,.234.14c.13,0,.2.047.2.137s.1.157.325.2.325.106.325.195c0,.073.037.126.081.117.213-.04.442.016.406.1-.023.053,0,.069.061.037s.1-.009.1.048.1.1.227.1c.15,0,.227.044.227.13,0,.134.19.242.431.244a.2.2,0,0,1,.177.142c.024.089.123.141.269.141s.245.052.269.14.127.141.308.141a.389.389,0,0,1,.382.187.377.377,0,0,0,.339.187c.148,0,.222.041.212.117s.072.129.211.148a.373.373,0,0,1,.279.164c.031.08.155.133.308.133.182,0,.256.04.256.137s.1.157.321.2c.179.034.336.118.355.19s.129.129.267.129.217.038.193.092,0,.069.061.037.1-.009.1.048.1.1.227.1c.15,0,.227.044.227.13,0,.142.193.242.471.244.115,0,.179.051.179.142s.065.14.195.14c.107,0,.195.045.195.1s.029.073.065.041.065-.013.065.041.132.1.3.1c.256,0,.293.023.256.161-.024.089-.022.131,0,.094s.085-.02.133.038.087.075.087.038.1.022.219.129a.774.774,0,0,0,.415.2.23.23,0,0,1,.234.141c.025.1.13.14.331.14s.294.038.294.13c0,.142.136.244.324.244a.147.147,0,0,1,.142.1c.013.055.149.124.3.154s.3.111.314.181.139.127.319.127c.21,0,.285.037.285.141,0,.155,0,.156.319.193a.361.361,0,0,1,.279.174.286.286,0,0,0,.281.148c.123,0,.224.045.224.1s.029.073.065.041.065-.013.065.041.117.1.26.1c.181,0,.26.04.26.133,0,.073.09.162.2.2a1.5,1.5,0,0,1,.373.194.707.707,0,0,0,.353.132c.115,0,.179.05.179.141,0,.106.079.141.325.141s.325.037.325.13c0,.074.1.156.223.19s.232.1.244.153.138.119.281.152a.489.489,0,0,1,.311.185c.031.075.166.126.334.126.186,0,.294.046.318.135a.387.387,0,0,0,.262.2.386.386,0,0,1,.261.192c.021.079.128.131.269.131a.446.446,0,0,1,.331.141.333.333,0,0,0,.232.14.265.265,0,0,1,.207.143.552.552,0,0,0,.332.2.489.489,0,0,1,.311.185c.078.189,1.169.177,1.279-.014a.372.372,0,0,1,.3-.14.268.268,0,0,0,.286-.187c.054-.144.136-.187.359-.187s.29-.037.29-.14.076-.141.294-.141c.2,0,.306-.044.331-.138a.381.381,0,0,1,.258-.2c.125-.034.221-.116.221-.19s.081-.13.255-.13a.477.477,0,0,0,.353-.14.363.363,0,0,1,.264-.141c.092,0,.167-.045.167-.1s.029-.073.065-.041.065.013.065-.041.1-.1.213-.1a.325.325,0,0,0,.306-.187.333.333,0,0,1,.341-.187c.16,0,.26-.05.285-.141s.121-.141.253-.141a.415.415,0,0,0,.308-.134.677.677,0,0,1,.329-.2c.137-.037.236-.118.236-.194s.081-.13.255-.13a.477.477,0,0,0,.353-.141.4.4,0,0,1,.293-.14c.108,0,.214-.042.236-.094a.723.723,0,0,1,.329-.2c.167-.061.288-.159.288-.234s.082-.13.26-.13c.143,0,.26-.045.26-.1s.029-.073.065-.041.065.013.065-.041.1-.1.229-.1c.144,0,.243-.052.266-.141a.207.207,0,0,1,.193-.14.428.428,0,0,0,.285-.187.443.443,0,0,1,.392-.187c.173,0,.274-.048.3-.14s.121-.141.253-.141a.444.444,0,0,0,.328-.163.46.46,0,0,1,.183-.173c.039-.006.136-.017.217-.025a.159.159,0,0,0,.146-.155c0-.1.072-.14.255-.14a.476.476,0,0,0,.351-.138.462.462,0,0,1,.292-.16c.108-.012.191-.066.185-.119s.076-.11.183-.125a.989.989,0,0,0,.292-.085.252.252,0,0,1,.144-.044c.025.007.03-.049.009-.126-.03-.111.023-.139.255-.139.2,0,.3-.044.33-.14a.234.234,0,0,1,.243-.141.337.337,0,0,0,.278-.136.691.691,0,0,1,.543-.231c.045,0,.081-.071.081-.148,0-.1.068-.14.227-.14.125,0,.227-.047.227-.1s.044-.079.1-.05.1.013.1-.037.089-.091.2-.091a.23.23,0,0,0,.234-.141.222.222,0,0,1,.209-.142c.272,0,.464-.1.464-.244,0-.088.081-.13.256-.13.154,0,.277-.053.308-.133a.373.373,0,0,1,.279-.164c.132-.018.221-.078.212-.143s.1-.137.272-.174.3-.121.321-.193.136-.131.322-.131.3-.045.325-.14a.231.231,0,0,1,.236-.14.231.231,0,0,0,.236-.141c.023-.087.122-.141.258-.141a.44.44,0,0,0,.35-.187.453.453,0,0,1,.325-.187q.195,0,.195-.14c0-.088.062-.141.164-.141s.182-.07.227-.24c.086-.327.089-.322-.135-.322-.129,0-.183-.036-.154-.1.062-.145-.1-.267-.347-.269a.24.24,0,0,1-.25-.142c-.023-.088-.122-.14-.262-.14a.433.433,0,0,1-.322-.141.38.38,0,0,0-.28-.14.192.192,0,0,1-.213-.167c-.021-.118-.1-.174-.282-.192a.574.574,0,0,1-.351-.154.609.609,0,0,0-.359-.159c-.165-.019-.254-.073-.243-.148s-.059-.117-.188-.117a.33.33,0,0,1-.287-.164c-.087-.172-.1-.18-.418-.2-.111-.007-.195-.063-.195-.132s-.089-.13-.205-.143a.389.389,0,0,1-.276-.156.518.518,0,0,0-.363-.161c-.161-.015-.283-.068-.271-.118.028-.119-.165-.223-.427-.231-.142,0-.211-.052-.211-.147s-.065-.14-.2-.14a.4.4,0,0,1-.3-.141.465.465,0,0,0-.345-.141c-.193,0-.255-.041-.281-.187s-.089-.187-.3-.187c-.193,0-.266-.038-.266-.14s-.069-.141-.232-.141a.443.443,0,0,1-.329-.141.42.42,0,0,0-.312-.14c-.16,0-.224-.048-.249-.187s-.089-.187-.3-.187a.485.485,0,0,1-.368-.14.347.347,0,0,0-.248-.141.2.2,0,0,1-.188-.141c-.025-.1-.13-.14-.331-.14s-.294-.038-.294-.129c0-.141-.192-.242-.464-.244a.222.222,0,0,1-.209-.142.208.208,0,0,0-.195-.141.209.209,0,0,1-.195-.14c-.026-.1-.133-.141-.362-.141-.262,0-.317-.027-.287-.141.021-.077.027-.143.014-.146s-.155-.026-.315-.052a.567.567,0,0,1-.364-.181.3.3,0,0,0-.246-.136.221.221,0,0,1-.211-.141c-.025-.1-.129-.141-.323-.141s-.285-.037-.285-.139a.241.241,0,0,0-.179-.194,1.324,1.324,0,0,1-.351-.189.714.714,0,0,0-.373-.134c-.135,0-.2-.046-.2-.141s-.075-.141-.288-.141c-.231,0-.3-.037-.329-.187s-.1-.187-.266-.187c-.14,0-.239-.053-.262-.14s-.125-.14-.283-.14-.259-.05-.282-.135-.15-.146-.348-.164c-.218-.02-.312-.069-.312-.163s-.084-.147-.227-.169a.451.451,0,0,1-.3-.17.368.368,0,0,0-.3-.135c-.144,0-.243-.052-.267-.141s-.129-.141-.324-.141c-.232,0-.293-.036-.321-.187a.2.2,0,0,0-.219-.19.5.5,0,0,1-.31-.141.526.526,0,0,0-.341-.137c-.148,0-.215-.044-.215-.141,0-.116-.119-.14-.684-.14-.548,0-.691.028-.721.14M78.44,100.881c-.025.094-.129.141-.315.142-.311,0-.48.112-.412.269.031.071-.06.1-.286.1s-.341.041-.368.141a.225.225,0,0,1-.218.14.225.225,0,0,0-.218.14.2.2,0,0,1-.185.142c-.25,0-.44.108-.44.244,0,.091-.086.129-.285.129s-.3.045-.323.141a.231.231,0,0,1-.236.14.231.231,0,0,0-.236.141c-.024.092-.125.141-.29.141a.305.305,0,0,0-.333.187.292.292,0,0,1-.285.187.356.356,0,0,0-.285.14.4.4,0,0,1-.333.141c-.18,0-.252.04-.252.14s-.073.141-.266.141c-.211,0-.273.038-.3.187s-.089.187-.281.187a.464.464,0,0,0-.343.138.468.468,0,0,1-.3.16c-.113.012-.2.075-.2.143s-.085.121-.227.121a.439.439,0,0,0-.357.187.441.441,0,0,1-.384.187c-.233,0-.261.027-.329.326-.092.4-.048.517.2.517a.453.453,0,0,1,.321.187.45.45,0,0,0,.317.187.333.333,0,0,1,.266.137c.043.076.1.134.122.13.23-.044.464.034.464.155,0,.1.068.141.227.141s.227.044.227.128.112.15.318.189c.19.036.333.117.355.2s.131.138.331.138c.218,0,.294.036.294.141s.068.14.227.14.227.044.227.13c0,.142.193.242.471.244.115,0,.179.051.179.142s.069.141.229.141c.144,0,.243.052.266.14s.129.141.325.141.3.046.322.131.162.158.317.192.3.122.318.2a.231.231,0,0,0,.226.136.228.228,0,0,1,.227.14c.025.093.126.141.3.141s.262.04.262.133c0,.143.344.293.451.2.036-.032.116.028.178.133a.377.377,0,0,0,.33.191c.126,0,.2.039.177.092s0,.069.061.037.1-.009.1.048.1.1.227.1c.15,0,.227.044.227.13s.106.153.286.192c.158.034.3.123.322.2s.125.136.267.136.245.052.269.14.13.14.33.14c.237,0,.285.027.253.145-.021.08-.012.121.021.092s.078-.01.1.042.156.1.3.1c.17,0,.25.039.24.117s.066.13.179.149a.341.341,0,0,1,.247.164c.032.083.16.132.341.132.211,0,.289.037.289.137s.1.157.325.2c.179.034.325.111.325.17s.08.117.179.129a.355.355,0,0,1,.251.161c.046.089.181.14.373.14s.3.037.285.114.1.155.243.206a.61.61,0,0,1,.312.214.318.318,0,0,0,.276.121c.123,0,.224.045.224.1s.029.073.065.041.065-.022.065.022.107.09.238.1a.426.426,0,0,1,.308.158.344.344,0,0,0,.2.162.756.756,0,0,1,.29.189.6.6,0,0,0,.366.162.234.234,0,0,1,.243.141c.025.1.13.14.331.14.218,0,.294.036.294.141a.151.151,0,0,0,.114.155l.2.024a.223.223,0,0,1,.137.133.5.5,0,0,0,.328.177c.151.029.29.11.308.18s.139.127.319.127c.2,0,.285.039.285.13,0,.156.14.244.388.244a.226.226,0,0,1,.22.14.232.232,0,0,0,.239.141.4.4,0,0,1,.3.141c.134.193,1,.2,1,.01,0-.074.091-.152.211-.18.379-.09.893-.381.893-.5,0-.079.09-.121.26-.121.143,0,.26-.045.26-.1s.029-.073.065-.041.065.013.065-.041.1-.1.229-.1c.144,0,.243-.052.266-.14a.234.234,0,0,1,.243-.141.324.324,0,0,0,.3-.187.333.333,0,0,1,.341-.187c.16,0,.26-.05.285-.14s.122-.141.258-.141a.376.376,0,0,0,.329-.183c.06-.1.134-.159.165-.132.1.089.374-.059.374-.2,0-.1.073-.139.255-.139a.477.477,0,0,0,.353-.141.387.387,0,0,1,.28-.143.565.565,0,0,0,.346-.185.543.543,0,0,1,.31-.185.205.205,0,0,0,.185-.143c.024-.092.125-.141.29-.141.139,0,.253-.045.253-.1s.029-.073.065-.041.065.013.065-.041.088-.1.195-.1q.195,0,.195-.14a.153.153,0,0,1,.146-.151,1.181,1.181,0,0,0,.211-.033,1.159,1.159,0,0,1,.179-.036.151.151,0,0,0,.114-.155c0-.1.076-.141.294-.141.2,0,.306-.044.331-.141a.226.226,0,0,1,.222-.14.272.272,0,0,0,.244-.154.317.317,0,0,1,.247-.173c.1-.01.238-.025.3-.033a.152.152,0,0,0,.114-.155c0-.1.072-.141.256-.141.154,0,.277-.053.308-.133a.373.373,0,0,1,.279-.164c.125-.017.221-.078.214-.136s.107-.129.254-.157a.471.471,0,0,0,.325-.2c.038-.1.15-.147.339-.147s.294-.045.319-.14.122-.141.262-.141c.157,0,.236-.049.261-.164s.109-.168.275-.176a.387.387,0,0,0,.316-.164.336.336,0,0,1,.281-.152c.112,0,.2-.047.2-.1s.044-.079.1-.05.1.013.1-.037.1-.091.227-.091c.149,0,.227-.044.227-.128s.114-.15.325-.191.325-.105.325-.2.075-.137.262-.137.274-.048.3-.141a.228.228,0,0,1,.227-.14.228.228,0,0,0,.227-.141.236.236,0,0,1,.248-.141.4.4,0,0,0,.328-.187.409.409,0,0,1,.3-.187.373.373,0,0,0,.275-.137.558.558,0,0,1,.355-.164c.143-.015.248-.055.233-.09-.042-.1.061-.161.338-.211a.5.5,0,0,0,.325-.19.268.268,0,0,1,.208-.145.333.333,0,0,0,.232-.141.48.48,0,0,1,.359-.14c.173,0,.281-.051.32-.152a.39.39,0,0,1,.311-.185.466.466,0,0,0,.325-.176.262.262,0,0,1,.2-.144c.22,0,.3-.136.246-.429-.058-.341-.129-.409-.424-.411-.171,0-.244-.047-.266-.169s-.1-.174-.276-.191a.721.721,0,0,1-.381-.161.455.455,0,0,0-.255-.137.323.323,0,0,1-.217-.14.41.41,0,0,0-.3-.141.292.292,0,0,1-.288-.187.3.3,0,0,0-.312-.187.442.442,0,0,1-.329-.141.347.347,0,0,0-.248-.14.2.2,0,0,1-.187-.135c-.023-.085-.15-.146-.348-.164-.171-.016-.3-.069-.291-.119.028-.119-.165-.223-.427-.231-.142,0-.211-.052-.211-.147s-.065-.141-.2-.141a.4.4,0,0,1-.3-.14.479.479,0,0,0-.356-.141c-.173,0-.244-.034-.214-.1.065-.152-.1-.267-.38-.269-.158,0-.259-.052-.283-.142a.228.228,0,0,0-.227-.14.228.228,0,0,1-.227-.14c-.025-.095-.128-.141-.315-.141-.223,0-.284-.037-.312-.187s-.089-.187-.361-.187c-.243,0-.345-.042-.4-.164-.065-.156-.071-.156-.136,0a.283.283,0,0,1-.259.164.292.292,0,0,0-.272.187.3.3,0,0,1-.317.187.391.391,0,0,0-.31.128.587.587,0,0,1-.347.181c-.15.029-.284.1-.3.153s-.111.1-.218.1a.2.2,0,0,0-.229.187c-.026.145-.089.187-.278.187a.4.4,0,0,0-.325.141.4.4,0,0,1-.335.14c-.156,0-.267.05-.288.129s-.149.156-.29.188-.249.106-.24.175-.091.126-.3.145-.325.078-.348.164a.225.225,0,0,1-.217.135.225.225,0,0,0-.218.14.2.2,0,0,1-.185.142c-.25,0-.44.108-.44.244,0,.091-.086.129-.284.129a.423.423,0,0,0-.365.141.336.336,0,0,1-.268.14c-.123,0-.187.048-.187.141s-.076.14-.3.14c-.244,0-.3.034-.332.187s-.089.187-.246.187a.365.365,0,0,0-.292.14.4.4,0,0,1-.333.141c-.18,0-.252.04-.252.141s-.073.14-.266.14c-.211,0-.273.038-.3.187s-.089.187-.281.187a.461.461,0,0,0-.34.133.514.514,0,0,1-.313.164c-.134.019-.214.077-.2.148s-.064.117-.211.117a.439.439,0,0,0-.357.187.441.441,0,0,1-.383.187c-.165,0-.266.049-.29.141s-.123.141-.266.141-.229.044-.229.128c0,.272-1.032.27-1.221,0a.305.305,0,0,0-.217-.125.329.329,0,0,1-.227-.141.465.465,0,0,0-.345-.141c-.193,0-.255-.041-.281-.187s-.089-.187-.3-.187c-.193,0-.266-.038-.266-.141s-.069-.14-.232-.14a.443.443,0,0,1-.329-.141.41.41,0,0,0-.3-.14.292.292,0,0,1-.288-.187.3.3,0,0,0-.312-.187.442.442,0,0,1-.329-.14.347.347,0,0,0-.248-.141.2.2,0,0,1-.188-.141c-.025-.1-.13-.14-.331-.14s-.294-.038-.294-.13c0-.141-.192-.242-.464-.244a.222.222,0,0,1-.209-.142.208.208,0,0,0-.195-.141.209.209,0,0,1-.195-.14c-.026-.1-.133-.141-.362-.141-.262,0-.317-.027-.287-.141.021-.077.027-.143.014-.146s-.155-.026-.315-.052a.567.567,0,0,1-.364-.181.3.3,0,0,0-.246-.136.221.221,0,0,1-.211-.141c-.025-.1-.129-.14-.323-.14s-.285-.037-.285-.139a.241.241,0,0,0-.179-.194,1.325,1.325,0,0,1-.351-.189.714.714,0,0,0-.373-.134c-.135,0-.2-.046-.2-.14s-.079-.141-.317-.141-.324-.036-.347-.166a.234.234,0,0,0-.218-.188.367.367,0,0,1-.261-.162.357.357,0,0,0-.3-.14c-.14,0-.243-.053-.265-.135s-.15-.146-.348-.164c-.218-.02-.312-.069-.312-.163s-.084-.147-.227-.169a.451.451,0,0,1-.3-.17c-.092-.172-.132-.17-.179.005m-.22,10.513a.2.2,0,0,0-.081.172c0,.092-.078.133-.252.133a.4.4,0,0,0-.333.14.4.4,0,0,1-.335.141c-.156,0-.267.05-.288.13s-.149.156-.29.188-.249.106-.24.175-.091.126-.3.145-.325.078-.348.164-.127.135-.282.135-.259.051-.28.129a.4.4,0,0,1-.267.192c-.14.038-.232.117-.232.2,0,.1-.079.136-.284.136a.423.423,0,0,0-.365.141.336.336,0,0,1-.268.14c-.123,0-.187.048-.187.141s-.076.14-.3.14c-.244,0-.3.034-.332.187s-.089.187-.246.187a.365.365,0,0,0-.292.141.4.4,0,0,1-.333.14c-.18,0-.252.04-.252.14s-.066.144-.179.151a1.381,1.381,0,0,0-.243.033,1.168,1.168,0,0,1-.153.036c-.05.008-.072.075-.051.155.029.11-.018.141-.216.141a.474.474,0,0,0-.35.14.391.391,0,0,1-.29.141.232.232,0,0,0-.225.123c-.046.175.022.626.1.626.034,0,.041-.053.015-.117s.018-.022.1.094a.461.461,0,0,0,.3.211c.088,0,.16.045.16.1s.027.075.06.045.079-.011.1.041a.273.273,0,0,0,.234.1.232.232,0,0,1,.225.121c.018.066.126.131.24.144a.33.33,0,0,1,.257.149.523.523,0,0,0,.336.189c.159.034.3.123.323.2s.129.136.3.136c.189,0,.262.039.262.14s.066.14.2.14a.334.334,0,0,1,.279.148.471.471,0,0,0,.327.182.4.4,0,0,1,.309.18c.038.1.151.146.339.146s.294.045.319.14a.23.23,0,0,0,.234.141c.108,0,.2.042.2.094s.031.094.069.094.05-.053.028-.117,0-.04.056.054a.459.459,0,0,0,.416.243c.045,0,.081.06.081.124s.108.128.275.144a.408.408,0,0,1,.328.164.3.3,0,0,0,.279.137c.142,0,.24.053.264.141a.4.4,0,0,0,.289.2.575.575,0,0,1,.325.187.4.4,0,0,0,.319.129c.158,0,.258.05.282.141a.23.23,0,0,0,.234.141c.124,0,.2.048.2.128s.114.15.325.191c.227.044.325.1.325.2,0,.078.037.135.081.126.213-.04.442.016.406.1-.023.053,0,.069.061.037s.1-.009.1.048.1.1.227.1c.15,0,.227.044.227.129,0,.142.193.242.471.244.115,0,.179.051.179.142s.069.141.229.141c.144,0,.243.052.267.14s.127.14.308.14a.389.389,0,0,1,.382.187.377.377,0,0,0,.339.187c.148,0,.222.041.212.117s.072.129.211.148a.373.373,0,0,1,.279.164c.031.08.155.133.308.133.175,0,.256.041.256.129,0,.141.192.242.464.244a.222.222,0,0,1,.209.142c.024.089.123.141.27.141s.217.038.193.092,0,.069.061.037.1-.009.1.048.1.1.227.1c.15,0,.227.044.227.129,0,.134.19.242.431.244a.2.2,0,0,1,.177.142.23.23,0,0,0,.234.141c.108,0,.2.045.2.1s.029.073.065.041.065-.013.065.041.132.1.3.1c.238,0,.291.028.262.139-.02.077-.016.135.009.129a.127.127,0,0,1,.079.009,1.57,1.57,0,0,0,.227.061c.276.059.37.117.333.2-.018.041.06.085.173.1a.331.331,0,0,1,.258.16c.034.089.156.137.342.137.2,0,.289.038.289.13,0,.142.136.244.324.244a.147.147,0,0,1,.142.1c.013.055.149.124.3.154s.3.111.314.181.144.127.352.127.313.036.3.117c-.026.185.526.213.576.029.026-.1.123-.146.292-.146.139,0,.253-.045.253-.1s.029-.073.065-.041.065.013.065-.041.1-.1.229-.1c.144,0,.243-.052.266-.141a.207.207,0,0,1,.193-.141.428.428,0,0,0,.285-.187.443.443,0,0,1,.392-.187c.173,0,.274-.048.3-.141s.122-.14.258-.14.22-.045.22-.128.114-.15.325-.191.325-.105.325-.2.074-.137.255-.137a.471.471,0,0,0,.347-.133.483.483,0,0,1,.281-.164c.108-.018.181-.081.172-.148s.07-.117.24-.117c.141,0,.274-.043.3-.1s.068-.071.1-.042.042-.012.021-.092c-.031-.118.016-.145.253-.145.2,0,.3-.044.33-.14a.234.234,0,0,1,.243-.14.337.337,0,0,0,.278-.137.51.51,0,0,1,.3-.191.51.51,0,0,0,.3-.191.334.334,0,0,1,.276-.137c.112,0,.2-.047.2-.1s.044-.079.1-.05.1.013.1-.037.089-.091.2-.091a.23.23,0,0,0,.234-.141.222.222,0,0,1,.209-.142c.272,0,.464-.1.464-.244,0-.089.082-.13.262-.13s.274-.048.3-.14a.228.228,0,0,1,.227-.14.231.231,0,0,0,.226-.136c.02-.075.163-.163.318-.2s.3-.12.317-.192.136-.131.322-.131.3-.045.325-.14a.229.229,0,0,1,.231-.141.274.274,0,0,0,.247-.137.443.443,0,0,1,.31-.183.51.51,0,0,0,.331-.191.332.332,0,0,1,.277-.145c.138,0,.2-.045.2-.141s.076-.141.294-.141c.2,0,.306-.044.331-.138s.165-.163.355-.2c.206-.039.318-.106.318-.189s.078-.128.227-.128.227-.042.227-.141.071-.141.252-.141a.4.4,0,0,0,.333-.14.336.336,0,0,1,.268-.14.45.45,0,0,0,.317-.187.453.453,0,0,1,.325-.187q.195,0,.195-.141c0-.1.066-.14.206-.14a.467.467,0,0,0,.328-.16.384.384,0,0,1,.311-.139.219.219,0,0,0,.258-.168.269.269,0,0,1,.29-.189.427.427,0,0,0,.318-.14.48.48,0,0,1,.359-.14c.163,0,.281-.052.315-.138a.447.447,0,0,1,.312-.186.51.51,0,0,0,.324-.177.524.524,0,0,1,.276-.2c.116-.037.21-.105.21-.153s.116-.086.257-.086c.192,0,.275-.048.328-.19.039-.1.092-.171.118-.148a.455.455,0,0,0,.268-.023c.389-.115.409-.856.022-.856a.355.355,0,0,1-.256-.141.42.42,0,0,0-.312-.14c-.16,0-.224-.048-.249-.187s-.089-.187-.3-.187a.485.485,0,0,1-.368-.141.347.347,0,0,0-.248-.14.2.2,0,0,1-.188-.14c-.025-.1-.13-.141-.331-.141s-.294-.038-.294-.129c0-.141-.192-.242-.464-.244a.222.222,0,0,1-.209-.142.208.208,0,0,0-.195-.141.209.209,0,0,1-.195-.14c-.026-.1-.133-.141-.362-.141-.262,0-.317-.027-.287-.141.021-.077.012-.145-.018-.151l-.249-.043a.4.4,0,0,1-.267-.177.352.352,0,0,0-.312-.144c-.152,0-.252-.051-.276-.141s-.129-.141-.323-.141-.285-.037-.285-.139a.241.241,0,0,0-.179-.194,1.324,1.324,0,0,1-.351-.189.714.714,0,0,0-.373-.134c-.135,0-.2-.046-.2-.141s-.075-.14-.288-.14c-.233,0-.3-.037-.33-.191-.038-.172-.28-.21-.6-.1a.371.371,0,0,0-.016.146c0,.1-.076.141-.294.141-.2,0-.306.044-.331.14s-.125.141-.283.141-.259.05-.283.14a.23.23,0,0,1-.234.141.291.291,0,0,0-.277.187c-.06.139-.151.187-.354.187-.16,0-.295.052-.325.126a.489.489,0,0,1-.311.185c-.143.032-.269.1-.281.155a.145.145,0,0,1-.141.1c-.188,0-.324.1-.324.244,0,.089-.08.13-.252.13a.4.4,0,0,0-.333.141.4.4,0,0,1-.329.14c-.152,0-.269.054-.3.139a.382.382,0,0,1-.279.174c-.137.022-.225.087-.225.166s-.1.139-.312.159c-.2.018-.325.078-.348.164s-.125.135-.265.135a.357.357,0,0,0-.3.14.424.424,0,0,1-.3.168c-.173.021-.223.066-.208.188s-.033.159-.268.159a.453.453,0,0,0-.361.128.587.587,0,0,1-.347.181c-.15.029-.284.1-.3.153s-.111.1-.218.1a.2.2,0,0,0-.229.187c-.026.145-.089.187-.278.187a.4.4,0,0,0-.325.14.329.329,0,0,1-.261.141.225.225,0,0,0-.217.14c-.024.09-.125.141-.283.142-.281,0-.445.118-.38.269.031.071-.058.1-.281.1s-.343.046-.377.132a.341.341,0,0,1-.247.164c-.113.018-.188.081-.179.149s-.054.118-.162.118c-.278,0-.471.1-.471.244,0,.1-.1.13-.393.13-.272,0-.379-.032-.349-.1.065-.151-.1-.267-.378-.269-.173,0-.243-.042-.243-.142s-.069-.14-.229-.14c-.144,0-.243-.052-.266-.141s-.128-.141-.315-.141c-.223,0-.284-.037-.312-.187s-.089-.187-.332-.187c-.222,0-.3-.036-.3-.141s-.068-.14-.227-.14-.227-.042-.227-.141-.079-.14-.317-.14-.324-.036-.347-.166a.234.234,0,0,0-.218-.188.367.367,0,0,1-.261-.162.357.357,0,0,0-.3-.14c-.14,0-.243-.053-.265-.135s-.15-.146-.348-.164-.306-.068-.3-.145-.09-.14-.249-.177-.28-.118-.3-.189-.134-.127-.289-.127-.268-.049-.292-.14-.128-.141-.315-.141c-.223,0-.284-.037-.312-.187a.2.2,0,0,0-.219-.19.5.5,0,0,1-.31-.141.526.526,0,0,0-.341-.137c-.148,0-.215-.044-.215-.14s-.075-.141-.288-.141c-.231,0-.3-.037-.329-.187s-.1-.187-.266-.187c-.14,0-.239-.053-.262-.14s-.125-.14-.283-.14-.259-.05-.282-.135-.15-.146-.348-.164c-.218-.02-.312-.069-.312-.163s-.084-.147-.227-.169a.451.451,0,0,1-.3-.17.368.368,0,0,0-.3-.135c-.144,0-.243-.052-.267-.141s-.13-.14-.331-.14c-.249,0-.294-.028-.294-.185,0-.18-.256-.242-.5-.121M77.9,122.129a.489.489,0,0,1-.311.185c-.143.032-.269.1-.281.155a.145.145,0,0,1-.141.1c-.188,0-.324.1-.324.244,0,.092-.086.13-.294.13s-.306.044-.331.141-.125.141-.287.141a.318.318,0,0,0-.3.133.388.388,0,0,1-.279.17c-.142.023-.227.087-.227.171s-.093.143-.312.163c-.2.018-.325.078-.348.164s-.127.135-.282.135-.259.05-.283.141a.23.23,0,0,1-.234.141.291.291,0,0,0-.277.187.3.3,0,0,1-.317.187.391.391,0,0,0-.31.128.587.587,0,0,1-.347.181c-.15.029-.284.1-.3.153s-.111.1-.218.1a.2.2,0,0,0-.229.187c-.026.145-.089.187-.278.187a.4.4,0,0,0-.325.14.4.4,0,0,1-.329.141c-.169,0-.269.052-.312.163-.035.09-.114.163-.176.164-.147,0-.175.418-.032.5a.511.511,0,0,1,.17.185.555.555,0,0,0,.341.182c.17.033.274.1.274.181s.093.128.325.128.325.037.325.13c0,.075.1.156.227.192s.227.1.227.156.027.071.06.041.079-.011.1.041a.26.26,0,0,0,.225.1.226.226,0,0,1,.221.141c.025.1.129.14.325.14s.3.046.323.135a.387.387,0,0,0,.262.2.386.386,0,0,1,.261.192c.022.083.132.131.3.131.144,0,.262.039.262.086s.094.116.21.153a.523.523,0,0,1,.276.2.551.551,0,0,0,.325.191.567.567,0,0,1,.324.181.525.525,0,0,0,.357.148c.191.018.287.068.276.145s.064.117.211.117c.125,0,.227.042.227.094s.031.094.069.094.048-.053.023-.117.018-.022.1.094a.461.461,0,0,0,.3.211c.088,0,.16.045.16.1s.027.075.06.045.079-.011.1.041a.26.26,0,0,0,.225.1.226.226,0,0,1,.221.141c.023.087.122.141.26.141s.237.054.256.127.142.152.275.183a.751.751,0,0,1,.37.224c.071.092.14.157.154.144.1-.092.415,0,.415.117,0,.1.066.141.2.141a.331.331,0,0,1,.276.143.466.466,0,0,0,.325.176.39.39,0,0,1,.311.185c.041.1.149.152.348.152s.289.037.289.141.068.141.227.141.227.044.227.129c0,.142.193.242.471.244.1,0,.179.053.179.118s.108.128.275.144a.408.408,0,0,1,.328.164.3.3,0,0,0,.279.137c.134,0,.24.053.261.131s.162.158.317.192.3.122.318.2a.231.231,0,0,0,.226.136.228.228,0,0,1,.227.141c.025.093.126.141.3.141s.262.039.262.137.1.157.325.2.325.106.325.195c0,.073.037.126.081.117.213-.04.442.016.406.1-.023.053,0,.069.061.037s.1-.009.1.048.1.1.227.1c.159,0,.227.042.227.14,0,.13.058.153.438.18.063,0,.135.082.16.172.032.113.119.164.278.164s.245.052.269.141.13.141.33.141c.237,0,.285.027.253.145-.021.08-.012.121.021.092s.078-.01.1.042.156.1.3.1c.17,0,.25.039.24.117s.072.129.211.148a.373.373,0,0,1,.279.164c.031.08.155.133.308.133.175,0,.256.041.256.13,0,.164.343.261.83.233s.6-.074.6-.234c0-.085.077-.129.227-.129.125,0,.227-.047.227-.1s.044-.079.1-.05.1.013.1-.037.086-.091.192-.091a.272.272,0,0,0,.251-.154.317.317,0,0,1,.247-.173c.1-.01.238-.025.3-.033a.152.152,0,0,0,.114-.155c0-.1.072-.141.256-.141.154,0,.277-.053.308-.133a.373.373,0,0,1,.279-.164c.125-.017.221-.078.214-.136s.107-.129.254-.157a.471.471,0,0,0,.325-.2c.038-.1.15-.147.339-.147s.294-.045.319-.141a.231.231,0,0,1,.236-.14.231.231,0,0,0,.236-.141c.023-.087.122-.14.258-.14a.44.44,0,0,0,.35-.187.453.453,0,0,1,.325-.187c.107,0,.195-.047.195-.1s.044-.079.1-.05.1.013.1-.037.1-.091.227-.091c.149,0,.227-.044.227-.128s.114-.15.325-.191.325-.105.325-.2.067-.137.2-.137a.23.23,0,0,0,.234-.141c.024-.091.124-.141.282-.141a.4.4,0,0,0,.326-.14.337.337,0,0,1,.268-.141.385.385,0,0,0,.3-.187.389.389,0,0,1,.287-.187.368.368,0,0,0,.271-.137.559.559,0,0,1,.356-.164c.143-.015.256-.065.25-.112s.092-.129.217-.181a.589.589,0,0,0,.279-.218.31.31,0,0,1,.271-.123.426.426,0,0,0,.317-.141.48.48,0,0,1,.359-.141c.163,0,.281-.052.315-.138a.447.447,0,0,1,.312-.186.514.514,0,0,0,.33-.189.331.331,0,0,1,.276-.142c.138,0,.2-.045.2-.141s.072-.141.262-.141c.169,0,.274-.048.3-.136s.166-.164.328-.2.307-.121.326-.192a.19.19,0,0,1,.177-.129.437.437,0,0,0,.269-.137.478.478,0,0,1,.3-.141.327.327,0,0,0,.251-.144.365.365,0,0,1,.292-.14.316.316,0,0,0,.3-.185.387.387,0,0,1,.361-.205c.149-.011.266-.065.26-.12s.126-.112.3-.128c.194-.018.325-.079.347-.161a.379.379,0,0,1,.256-.192c.125-.034.221-.116.221-.19s.081-.13.255-.13a.477.477,0,0,0,.353-.14.446.446,0,0,1,.331-.141c.148,0,.248-.051.271-.14a.222.222,0,0,1,.211-.141.332.332,0,0,0,.267-.187.333.333,0,0,1,.341-.187c.16,0,.26-.05.285-.141s.121-.141.253-.141a.409.409,0,0,0,.3-.126,1.3,1.3,0,0,1,.228-.234c.135-.1.185-.483.064-.483a.646.646,0,0,1-.222-.187.6.6,0,0,0-.384-.187c-.151,0-.218-.044-.218-.141s-.079-.14-.317-.14-.324-.036-.347-.166a.234.234,0,0,0-.218-.188.367.367,0,0,1-.261-.162.357.357,0,0,0-.3-.14c-.14,0-.243-.053-.265-.135s-.15-.146-.348-.164c-.218-.02-.312-.069-.312-.163s-.084-.147-.227-.169a.451.451,0,0,1-.3-.17.38.38,0,0,0-.31-.135c-.152,0-.252-.051-.276-.14s-.128-.14-.315-.14c-.223,0-.284-.037-.312-.187a.2.2,0,0,0-.219-.19.5.5,0,0,1-.31-.141.526.526,0,0,0-.341-.137c-.148,0-.215-.044-.215-.141s-.075-.141-.288-.141c-.231,0-.3-.037-.329-.187s-.1-.187-.266-.187c-.14,0-.239-.053-.262-.141s-.125-.14-.283-.14-.259-.05-.283-.141c-.029-.108-.152-.14-.526-.14-.391,0-.489.028-.489.14s-.076.141-.294.141c-.2,0-.306.044-.331.14a.235.235,0,0,1-.245.141.483.483,0,0,0-.347.187.485.485,0,0,1-.344.187c-.155,0-.2.034-.167.141.033.123-.327.219-.439.117-.014-.013-.08.047-.146.133a.577.577,0,0,1-.315.187c-.12.019-.195.085-.195.172s-.087.148-.312.169c-.2.018-.325.078-.348.164s-.13.135-.3.135a.357.357,0,0,0-.339.152.308.308,0,0,1-.251.152c-.126,0-.174.048-.174.176,0,.146-.05.176-.294.176-.2,0-.306.044-.331.14s-.125.14-.287.14a.318.318,0,0,0-.3.133.388.388,0,0,1-.279.17c-.142.023-.227.087-.227.171s-.093.143-.312.163c-.2.018-.325.078-.348.164s-.127.135-.282.135-.259.05-.283.141a.23.23,0,0,1-.234.14.291.291,0,0,0-.277.187.3.3,0,0,1-.317.187.391.391,0,0,0-.31.128.587.587,0,0,1-.347.181c-.15.029-.284.1-.3.153a.147.147,0,0,1-.142.1c-.188,0-.324.1-.324.244,0,.089-.08.13-.252.13a.4.4,0,0,0-.333.141.4.4,0,0,1-.335.14c-.156,0-.267.05-.288.129s-.149.156-.29.188-.249.106-.24.175-.091.126-.3.145-.325.078-.348.164a.164.164,0,0,1-.323-.005c-.025-.1-.129-.141-.323-.141s-.285-.037-.285-.139a.241.241,0,0,0-.179-.194,1.323,1.323,0,0,1-.351-.189.714.714,0,0,0-.373-.134c-.135,0-.2-.046-.2-.14s-.075-.141-.288-.141c-.231,0-.3-.037-.329-.187s-.1-.187-.266-.187c-.14,0-.239-.053-.262-.141s-.125-.141-.283-.141-.259-.05-.282-.135-.15-.146-.348-.164c-.218-.02-.312-.069-.312-.163s-.084-.147-.227-.169a.451.451,0,0,1-.3-.17.368.368,0,0,0-.3-.135c-.144,0-.243-.052-.267-.141s-.129-.14-.324-.14c-.232,0-.293-.036-.321-.187a.2.2,0,0,0-.219-.19.5.5,0,0,1-.31-.141.526.526,0,0,0-.341-.137c-.148,0-.215-.044-.215-.14s-.079-.14-.317-.14c-.262,0-.323-.032-.351-.187-.022-.124-.089-.187-.194-.187a.309.309,0,0,1-.241-.141.4.4,0,0,0-.326-.141c-.158,0-.258-.05-.282-.14s-.13-.14-.331-.14-.294-.038-.294-.13c0-.143-.136-.244-.33-.244a.114.114,0,0,1-.124-.1c0-.055-.029-.073-.065-.041s-.065.013-.065-.041-.1-.1-.232-.1a.443.443,0,0,1-.329-.141.435.435,0,0,0-.324-.141c-.15,0-.211-.035-.182-.1.059-.137-.091-.267-.308-.269s-.387-.094-.342-.2c.02-.046-.1-.084-.26-.084-.22,0-.3-.036-.3-.141,0-.192-.941-.205-1.019-.014" transform="translate(-65.044 -77.186)"/><path class="e" transform="translate(0 -0.085)"/></g></svg>